<svg width="320" height="59" viewBox="0 0 320 59" fill="none" xmlns="http://www.w3.org/2000/svg">
<g clip-path="url(#clip0_7020_110587)">
<path d="M0.282132 46.1156H3.63636C4.35737 46.1156 4.45141 46.0207 4.45141 45.2933V13.1715C4.45141 12.4441 4.35737 12.3492 3.63636 12.3492H0.428422C0.240334 12.3492 0.135841 12.3492 0.135841 11.917C0.135841 11.4847 0.229885 11.4847 0.428422 11.4847H14.3678C14.5559 11.4847 14.65 11.4847 14.65 11.917C14.65 12.3492 14.5559 12.3492 14.3678 12.3492H11.1599C10.4389 12.3492 10.3448 12.4441 10.3448 13.1715V27.4666L18.2445 20.319C26.604 12.7287 25.3814 12.539 20.4493 12.3492C20.2612 12.3492 20.1567 12.2016 20.1567 11.917C20.1567 11.6323 20.2508 11.4847 20.4493 11.4847H32.278C32.466 11.4847 32.5601 11.4847 32.5601 11.917C32.5601 12.3492 32.466 12.3492 32.1735 12.3492C28.8192 12.539 28.0564 12.6865 18.861 20.8989L14.5037 24.81L29.791 45.325C30.3657 46.0524 30.512 46.1472 31.2226 46.1472H33.9081C34.0961 46.1472 34.2006 46.1472 34.2006 46.5795C34.2006 47.0117 34.1066 47.0117 33.9081 47.0117H18.9133C18.7252 47.0117 18.6207 47.0117 18.6207 46.5795C18.6207 46.1472 18.7147 46.1472 18.9133 46.1472H22.7482C23.4692 46.1472 23.5632 46.0524 22.9885 45.325L13.6991 32.8747C12.9363 31.8205 10.7315 28.816 10.5643 28.4259H10.3448V45.325C10.3448 46.0524 10.4389 46.1472 11.1599 46.1472H14.3678C14.5559 46.1472 14.65 46.1472 14.65 46.5795C14.65 47.0117 14.5559 47.0117 14.3678 47.0117H0.282132C0.0940439 47.0117 0 47.0117 0 46.5795C0 46.1472 0.0940439 46.1156 0.282132 46.1156Z" fill="white"/>
<path d="M44.935 25.6345C50.3896 25.6345 53.4617 30.2203 53.4617 34.9538C53.4617 35.5863 53.2736 35.7233 52.6989 35.7233H39.9402V36.5878C39.9402 41.279 40.703 43.6932 42.1451 45.1374C43.1064 46.0335 44.3812 46.5185 45.6874 46.4868C48.8222 46.4868 51.1001 44.1676 52.4376 41.901C52.5839 41.6585 53.2527 42.0486 53.1586 42.2911C51.6435 45.4748 48.4669 47.52 44.9664 47.5621C39.3655 47.5621 34.8096 42.9236 34.8096 36.5983C34.8096 30.2731 39.5954 25.6345 44.935 25.6345V25.6345ZM41.8002 27.6164C40.2642 29.1661 39.8358 31.7279 39.8358 34.9116H47.9235C48.5923 34.9116 48.7804 34.9116 48.7804 34.3845C48.7804 30.5155 48.3937 28.6812 47.2025 27.4794C46.5129 26.7942 45.5829 26.4146 44.6215 26.4252C43.5662 26.4463 42.5526 26.8785 41.8002 27.6164V27.6164Z" fill="white"/>
<path d="M55.5359 46.1277H58.3154C59.0364 46.1277 59.1305 46.0328 59.1305 45.3054V12.3086C59.1305 11.5812 59.0364 11.4863 58.3154 11.4863H56.0688C55.8807 11.4863 55.7763 11.4863 55.7763 11.0541C55.7763 10.6218 55.8703 10.6218 56.0688 10.6218H63.0594C63.7804 10.6218 63.8745 10.7167 63.8745 11.4441V45.337C63.8745 46.0644 63.9685 46.1593 64.6895 46.1593H66.8734C67.0615 46.1593 67.166 46.1593 67.166 46.5915C67.166 47.0238 67.072 47.0238 66.8734 47.0238H55.5359C55.3478 47.0238 55.2538 47.0238 55.2538 46.5915C55.2538 46.1593 55.3792 46.1277 55.5359 46.1277Z" fill="white"/>
<path d="M69.0385 46.1277H71.818C72.539 46.1277 72.633 46.0328 72.633 45.3054V12.3086C72.633 11.5812 72.539 11.4863 71.818 11.4863H69.5714C69.3833 11.4863 69.2788 11.4863 69.2788 11.0541C69.2788 10.6218 69.3729 10.6218 69.5714 10.6218H76.562C77.283 10.6218 77.377 10.7167 77.377 11.4441V45.337C77.377 46.0644 77.4711 46.1593 78.1921 46.1593H80.3969C80.585 46.1593 80.6895 46.1593 80.6895 46.5915C80.6895 47.0238 80.5954 47.0238 80.3969 47.0238H69.0385C68.8504 47.0238 68.7563 47.0238 68.7563 46.5915C68.7563 46.1593 68.8504 46.1277 69.0385 46.1277V46.1277Z" fill="white"/>
<path d="M93.4562 25.6345C98.9108 25.6345 101.983 30.2203 101.983 34.9538C101.983 35.5863 101.795 35.7233 101.22 35.7233H88.4301V36.5878C88.4301 41.279 89.1929 43.6932 90.6349 45.1374C91.5963 46.0335 92.8711 46.5185 94.1772 46.4868C97.312 46.4868 99.59 44.1676 100.927 41.901C101.074 41.6585 101.743 42.0486 101.649 42.2911C100.133 45.4748 96.9568 47.52 93.4562 47.5621C87.8554 47.5621 83.2995 42.9236 83.2995 36.5983C83.2995 30.2731 88.0957 25.6345 93.4562 25.6345V25.6345ZM90.3214 27.6164C88.7854 29.1661 88.357 31.7279 88.357 34.9116H96.4447C97.1135 34.9116 97.3016 34.9116 97.3016 34.3845C97.3016 30.5155 96.915 28.6812 95.7237 27.4794C95.0341 26.7942 94.1041 26.4146 93.1428 26.4252C92.0978 26.4568 91.0947 26.8785 90.3423 27.6164H90.3214V27.6164Z" fill="white"/>
<path d="M104.711 46.1273H107.25C107.971 46.1273 108.065 46.0324 108.065 45.305V27.9105C108.065 27.1831 107.971 27.0882 107.25 27.0882H105.004C104.816 27.0882 104.711 27.0882 104.711 26.656C104.711 26.2238 104.805 26.2238 105.004 26.2238H111.9C112.621 26.2238 112.715 26.3186 112.715 27.0461V27.2885C112.715 27.7735 112.621 29.6605 112.621 30.3774L112.768 30.4722C113.436 27.6259 115.453 25.644 118.18 25.644C120.281 25.4964 122.099 27.0988 122.245 29.2177C122.245 29.2704 122.245 29.3126 122.245 29.3653C122.339 30.9783 121.117 32.3593 119.518 32.4542C118.483 32.5385 117.574 31.7689 117.491 30.7253C117.491 30.6725 117.491 30.6304 117.491 30.5777C117.491 29.2704 118.306 28.8382 118.306 27.9211C118.347 27.2885 117.877 26.7509 117.25 26.7087C117.208 26.7087 117.156 26.7087 117.114 26.7087C115.443 26.7087 113.426 28.8171 112.809 33.7614V45.3366C112.809 46.064 112.903 46.1589 113.624 46.1589H116.446C116.634 46.1589 116.738 46.1589 116.738 46.5911C116.738 47.0234 116.644 47.0234 116.446 47.0234H104.711C104.523 47.0234 104.429 47.0234 104.429 46.5911C104.429 46.1589 104.492 46.1273 104.711 46.1273Z" fill="white"/>
<path d="M135.164 0H132.97V58.4772H135.164V0Z" fill="#20CE9C"/>
<path d="M160.373 31.76C159.171 31.76 157.541 31.6124 156.047 31.3278V45.6334C156.047 46.3608 156.141 46.4557 156.862 46.4557H160.613C160.801 46.4557 160.905 46.5084 160.905 46.888C160.905 47.2675 160.811 47.3202 160.613 47.3202H145.952C145.764 47.3202 145.66 47.2675 145.66 46.888C145.66 46.5084 145.754 46.4557 145.952 46.4557H149.317C150.038 46.4557 150.132 46.3608 150.132 45.6334V13.3745C150.132 12.6471 150.038 12.5523 149.317 12.5523H146.099C145.911 12.5523 145.806 12.4995 145.806 12.12C145.806 11.7405 145.9 11.6878 146.099 11.6878H160.613C169.411 11.6878 173.549 16.3474 173.549 21.7239C173.549 27.4904 168.889 31.76 160.383 31.76H160.373ZM165.127 14.2074C164.019 13.0899 162.724 12.5628 160.613 12.5628H156.862C156.141 12.5628 156.047 12.6577 156.047 13.3851V30.4422C157.395 30.7374 159.171 30.8745 160.373 30.8745C162.536 30.8745 164.03 30.3368 164.887 29.4724C166.276 28.0703 167.196 25.9302 167.196 21.7134C167.196 17.739 166.475 15.5568 165.127 14.1968V14.2074Z" fill="white"/>
<path d="M184.407 47.9003C178.399 47.9003 173.832 43.2406 173.832 36.8943C173.832 30.5479 178.347 25.8883 184.407 25.8883C190.468 25.8883 194.982 30.4952 194.982 36.8943C194.982 43.2934 190.416 47.9003 184.407 47.9003ZM181.189 45.718C182.056 46.593 183.059 47.0253 184.407 47.0253C185.755 47.0253 186.758 46.593 187.626 45.718C189.068 44.2632 189.841 41.5961 189.841 36.8943C189.841 32.1925 189.068 29.5253 187.626 28.0705C186.758 27.1955 185.755 26.7633 184.407 26.7633C183.059 26.7633 182.056 27.1955 181.189 28.0705C179.747 29.5253 178.974 32.1925 178.974 36.8943C178.974 41.5961 179.747 44.2632 181.189 45.718Z" fill="white"/>
<path d="M205.605 25.8862C208.196 25.8862 209.262 27.0985 210.119 27.0985C210.6 27.0985 210.788 26.856 211.133 26.466C211.279 26.2762 211.425 26.1708 211.666 26.1708C211.906 26.1708 212 26.3184 212 26.5608V31.99C212 32.1376 211.812 32.2852 211.572 32.2852C211.331 32.2852 211.185 32.1903 211.143 31.99C210.276 28.353 208.646 26.7506 205.615 26.7506C203.452 26.7506 202.199 28.0578 202.199 29.9976C202.199 31.5473 203.212 33.097 207.005 34.362C211.718 35.9117 213.588 38.2415 213.588 41.246C213.588 45.1255 210.851 47.8876 205.992 47.8876C202.92 47.8876 201.854 46.5276 200.37 46.5276C199.889 46.5276 199.555 46.7701 199.116 47.3077C198.97 47.4975 198.823 47.6029 198.583 47.6029C198.343 47.6029 198.249 47.4553 198.249 47.2129V39.6963C198.249 39.5487 198.395 39.4012 198.677 39.4012C199.012 39.4012 199.064 39.5487 199.106 39.6963C200.067 44.3981 202.282 47.0231 205.981 47.0231C208.813 47.0231 210.495 45.4734 210.495 43.1963C210.495 40.9192 209.2 39.5066 205.501 38.2942C201.08 36.8394 199.106 34.847 199.106 31.5473C199.106 27.963 202.136 25.8756 205.595 25.8756L205.605 25.8862Z" fill="white"/>
<path d="M215.978 26.4633H218.914V26.031C218.914 25.8413 218.966 25.6937 219.102 25.4934C220.492 23.5009 221.506 21.6139 222.467 19.5265C222.707 19.0416 222.801 18.9467 223.094 18.9467C223.48 18.9467 223.669 19.0416 223.669 19.769V26.4633H229.008C229.196 26.4633 229.301 26.516 229.301 26.8955C229.301 27.275 229.207 27.3277 229.008 27.3277H223.669V43.3834C223.669 45.5129 224.39 46.2403 225.685 46.2403C226.793 46.2403 227.995 45.3653 229.05 43.3306C229.196 43.0355 229.959 43.3834 229.823 43.668C228.528 46.5776 226.699 47.8848 224.296 47.8848C220.879 47.8848 218.914 45.7026 218.914 41.3382V27.3172H215.978C215.79 27.3172 215.685 27.2645 215.685 26.8849C215.685 26.5054 215.779 26.4527 215.978 26.4527V26.4633Z" fill="white"/>
<path d="M232.092 46.456H234.642C235.363 46.456 235.457 46.3611 235.457 45.6337V28.1654C235.457 27.438 235.363 27.3431 234.642 27.3431H232.719C232.531 27.3431 232.427 27.2904 232.427 26.9109C232.427 26.5314 232.521 26.4787 232.719 26.4787H239.302C240.023 26.4787 240.117 26.5735 240.117 27.301C240.117 27.9756 240.023 29.2934 239.971 30.063L240.117 30.1579C240.692 27.7859 243.001 25.8883 246.032 25.8883C249.731 25.8883 251.946 27.438 252.813 30.0103H253.001C253.869 27.7332 255.833 25.8883 259.062 25.8883C263.628 25.8883 266.565 28.4079 266.565 33.3521V45.6232C266.565 46.3506 266.659 46.4454 267.38 46.4454H269.25C269.438 46.4454 269.543 46.4982 269.543 46.8777C269.543 47.2572 269.449 47.3099 269.25 47.3099H258.675C258.487 47.3099 258.383 47.2572 258.383 46.8777C258.383 46.4982 258.477 46.4454 258.675 46.4454H260.985C261.706 46.4454 261.8 46.3506 261.8 45.6232V32.7723C261.8 29.0404 260.598 26.9531 257.808 26.9531C255.739 26.9531 253.388 29.0826 253.388 32.2347V45.6232C253.388 46.3506 253.482 46.4454 254.203 46.4454H256.126C256.314 46.4454 256.418 46.4982 256.418 46.8777C256.418 47.2572 256.324 47.3099 256.126 47.3099H245.499C245.311 47.3099 245.206 47.2572 245.206 46.8777C245.206 46.4982 245.3 46.4454 245.499 46.4454H247.808C248.529 46.4454 248.623 46.3506 248.623 45.6232V32.8145C248.623 28.935 247.369 26.9425 244.83 26.9425C242.615 26.9425 240.838 29.072 240.211 31.8446V45.6232C240.211 46.3506 240.305 46.4454 241.027 46.4454H242.949C243.137 46.4454 243.242 46.4982 243.242 46.8777C243.242 47.2572 243.148 47.3099 242.949 47.3099H232.082C231.894 47.3099 231.789 47.2572 231.789 46.8777C231.789 46.4982 231.883 46.4454 232.082 46.4454L232.092 46.456Z" fill="white"/>
<path d="M279.91 35.6798C281.739 35.6798 283.034 36.112 284.09 36.597V31.8952C284.09 28.2054 282.355 26.7506 280.004 26.7506C277.653 26.7506 276.399 27.7732 276.399 28.7431C276.399 29.8605 277.308 30.2928 277.308 31.6C277.308 32.6226 276.535 33.487 275.333 33.487C274.132 33.487 273.264 32.2747 273.264 30.8726C273.264 28.5006 276.096 25.8756 279.994 25.8756C285.856 25.8756 288.74 28.6904 288.74 33.5397V44.6511C288.74 46.2008 289.314 46.6858 290.276 46.6858C290.85 46.6858 291.624 46.4433 292.104 46.1481C292.345 46.0005 292.773 46.7279 292.585 46.8755C291.477 47.5502 290.37 47.8981 289.032 47.8981C286.921 47.8981 285.093 46.2957 284.466 44.3138H284.278C283.505 46.5909 281.488 47.8981 278.938 47.8981C274.079 47.8981 271.916 45.1361 271.916 41.8364C271.916 37.9042 274.8 35.6798 279.9 35.6798H279.91ZM280.338 46.8334C282.261 46.8334 283.797 44.9463 284.09 41.7415V37.5247C283.275 36.987 282.073 36.5021 280.819 36.5021C278.468 36.5021 276.921 37.8093 276.921 41.8364C276.921 45.5683 278.123 46.8334 280.338 46.8334V46.8334Z" fill="white"/>
<path d="M294.901 46.4581H297.451C298.172 46.4581 298.266 46.3633 298.266 45.6359V28.1676C298.266 27.4402 298.172 27.3453 297.451 27.3453H295.476C295.288 27.3453 295.184 27.2926 295.184 26.913C295.184 26.5335 295.278 26.4808 295.476 26.4808H302.111C302.832 26.4808 302.926 26.5757 302.926 27.3031C302.926 27.9778 302.832 29.2956 302.738 30.2654L302.885 30.3603C303.7 28.0305 305.622 25.901 309.374 25.901C314.233 25.901 316.918 28.5682 316.918 33.4175V45.6359C316.918 46.3633 317.012 46.4581 317.733 46.4581H319.708C319.896 46.4581 320.001 46.5109 320.001 46.8904C320.001 47.2699 319.907 47.3226 319.708 47.3226H309.133C308.945 47.3226 308.841 47.2699 308.841 46.8904C308.841 46.5109 308.935 46.4581 309.133 46.4581H311.349C312.07 46.4581 312.164 46.3633 312.164 45.6359V32.8799C312.164 28.5154 310.335 26.9658 307.932 26.9658C305.528 26.9658 303.553 29.2007 303.031 32.5004V45.6464C303.031 46.3738 303.125 46.4687 303.846 46.4687H306.061C306.249 46.4687 306.354 46.5214 306.354 46.9009C306.354 47.2804 306.26 47.3331 306.061 47.3331H294.912C294.724 47.3331 294.619 47.2804 294.619 46.9009C294.619 46.5214 294.713 46.4687 294.912 46.4687L294.901 46.4581Z" fill="white"/>
</g>
<defs>
<clipPath id="clip0_7020_110587">
<rect width="320" height="58.4772" fill="white"/>
</clipPath>
</defs>
</svg>
