<?xml version="1.0" encoding="UTF-8" standalone="no"?>
<svg
   xmlns:dc="http://purl.org/dc/elements/1.1/"
   xmlns:cc="http://creativecommons.org/ns#"
   xmlns:rdf="http://www.w3.org/1999/02/22-rdf-syntax-ns#"
   xmlns:svg="http://www.w3.org/2000/svg"
   xmlns="http://www.w3.org/2000/svg"
   xmlns:sodipodi="http://sodipodi.sourceforge.net/DTD/sodipodi-0.dtd"
   xmlns:inkscape="http://www.inkscape.org/namespaces/inkscape"
   width="24"
   height="24"
   viewBox="0 0 24 24"
   fill="none"
   version="1.1"
   id="svg12"
   sodipodi:docname="comm.svg"
   inkscape:version="1.0.1 (3bc2e813f5, 2020-09-07)">
  <metadata
     id="metadata18">
    <rdf:RDF>
      <cc:Work
         rdf:about="">
        <dc:format>image/svg+xml</dc:format>
        <dc:type
           rdf:resource="http://purl.org/dc/dcmitype/StillImage" />
        <dc:title></dc:title>
      </cc:Work>
    </rdf:RDF>
  </metadata>
  <defs
     id="defs16" />
  <sodipodi:namedview
     pagecolor="#ffffff"
     bordercolor="#666666"
     borderopacity="1"
     objecttolerance="10"
     gridtolerance="10"
     guidetolerance="10"
     inkscape:pageopacity="0"
     inkscape:pageshadow="2"
     inkscape:window-width="1920"
     inkscape:window-height="1017"
     id="namedview14"
     showgrid="false"
     inkscape:pagecheckerboard="true"
     inkscape:zoom="10.708333"
     inkscape:cx="24"
     inkscape:cy="24"
     inkscape:window-x="-8"
     inkscape:window-y="-8"
     inkscape:window-maximized="1"
     inkscape:current-layer="svg12" />
  <path
     id="path861"
     style="color:#000000;font-style:normal;font-variant:normal;font-weight:normal;font-stretch:normal;font-size:medium;line-height:normal;font-family:sans-serif;font-variant-ligatures:normal;font-variant-position:normal;font-variant-caps:normal;font-variant-numeric:normal;font-variant-alternates:normal;font-variant-east-asian:normal;font-feature-settings:normal;font-variation-settings:normal;text-indent:0;text-align:start;text-decoration:none;text-decoration-line:none;text-decoration-style:solid;text-decoration-color:#000000;letter-spacing:normal;word-spacing:normal;text-transform:none;writing-mode:lr-tb;direction:ltr;text-orientation:mixed;dominant-baseline:auto;baseline-shift:baseline;text-anchor:start;white-space:normal;shape-padding:0;shape-margin:0;inline-size:0;clip-rule:nonzero;display:inline;overflow:visible;visibility:visible;isolation:auto;mix-blend-mode:normal;color-interpolation:sRGB;color-interpolation-filters:linearRGB;solid-color:#000000;solid-opacity:1;vector-effect:none;fill:#0d1014;fill-opacity:1;fill-rule:nonzero;stroke:none;stroke-width:0.999999;stroke-linecap:butt;stroke-linejoin:miter;stroke-miterlimit:10;stroke-dasharray:none;stroke-dashoffset:0;stroke-opacity:1;color-rendering:auto;image-rendering:auto;shape-rendering:auto;text-rendering:auto;enable-background:accumulate;stop-color:#000000;stop-opacity:1;opacity:1"
     d="M 12 2 C 10.330752 2.0000002 8.9667968 3.3639549 8.9667969 5.0332031 C 8.9667969 5.0840435 8.9799213 5.1313965 8.9824219 5.1816406 C 7.2897612 5.9324102 5.9343634 7.2878082 5.1835938 8.9804688 C 5.1327039 8.977903 5.0847053 8.9648437 5.0332031 8.9648438 C 3.3639549 8.9648436 2.0000002 10.328799 2 11.998047 C 1.9999995 13.667296 3.3639544 15.03125 5.0332031 15.03125 C 5.0840435 15.03125 5.1313965 15.018126 5.1816406 15.015625 C 5.9320422 16.710174 7.2884363 18.067007 8.9824219 18.818359 C 8.9799213 18.868603 8.9667969 18.915956 8.9667969 18.966797 C 8.966797 20.636045 10.330752 22 12 22 C 13.669249 22.000001 15.033203 20.636045 15.033203 18.966797 C 15.033203 18.916618 15.020014 18.869911 15.017578 18.820312 C 16.714204 18.069079 18.077541 16.714199 18.828125 15.017578 C 18.875071 15.019759 18.919333 15.03125 18.966797 15.03125 C 20.636045 15.03125 22.000001 13.667295 22 11.998047 C 22 10.328799 20.636045 8.9648438 18.966797 8.9648438 C 18.916618 8.9648438 18.869911 8.9780325 18.820312 8.9804688 C 18.068959 7.2864833 16.712127 5.9300891 15.017578 5.1796875 C 15.020014 5.1300894 15.033203 5.0833817 15.033203 5.0332031 C 15.033203 3.3639544 13.669249 1.9999995 12 2 z M 12 3 C 13.128809 2.9999996 14.033203 3.9043941 14.033203 5.0332031 C 14.033203 6.1620121 13.128809 7.0664066 12 7.0664062 C 10.871191 7.0664061 9.9667969 6.1620118 9.9667969 5.0332031 C 9.9667968 3.9043945 10.871191 3.0000001 12 3 z M 9.1953125 6.1796875 C 9.649922 7.2833888 10.736581 8.0664062 12 8.0664062 C 13.26342 8.0664067 14.350078 7.283389 14.804688 6.1796875 C 16.120094 6.8144436 17.18681 7.8783731 17.822266 9.1933594 C 16.717659 9.6475472 15.933594 10.733974 15.933594 11.998047 C 15.933593 13.264286 16.72052 14.351902 17.828125 14.804688 C 17.192826 16.121261 16.121226 17.184937 14.804688 17.820312 C 14.350078 16.716611 13.26342 15.933593 12 15.933594 C 10.736581 15.933594 9.649922 16.716611 9.1953125 17.820312 C 7.8800852 17.184741 6.814401 16.118473 6.1796875 14.802734 C 7.283389 14.348125 8.0664067 13.261467 8.0664062 11.998047 C 8.0664062 10.735282 7.2844363 9.6483896 6.1816406 9.1933594 C 6.8165848 7.879443 7.8813962 6.8146317 9.1953125 6.1796875 z M 5.0332031 9.9648438 C 6.1620118 9.9648436 7.0664061 10.869238 7.0664062 11.998047 C 7.0664066 13.126856 6.1620121 14.03125 5.0332031 14.03125 C 3.9043941 14.03125 2.9999996 13.126856 3 11.998047 C 3.0000001 10.869238 3.9043945 9.9648436 5.0332031 9.9648438 z M 18.966797 9.9648438 C 20.095605 9.9648438 21 10.869238 21 11.998047 C 21 13.126856 20.095606 14.03125 18.966797 14.03125 C 17.837988 14.03125 16.933593 13.126856 16.933594 11.998047 C 16.933594 10.869238 17.837988 9.9648438 18.966797 9.9648438 z M 12 16.933594 C 13.128809 16.933593 14.033203 17.837988 14.033203 18.966797 C 14.033203 20.095606 13.128809 21 12 21 C 10.871191 21 9.966797 20.095605 9.9667969 18.966797 C 9.966797 17.837988 10.871191 16.933594 12 16.933594 z " />
</svg>
