<?xml version="1.0" encoding="UTF-8" standalone="no"?>
<svg
   xmlns:dc="http://purl.org/dc/elements/1.1/"
   xmlns:cc="http://creativecommons.org/ns#"
   xmlns:rdf="http://www.w3.org/1999/02/22-rdf-syntax-ns#"
   xmlns:svg="http://www.w3.org/2000/svg"
   xmlns="http://www.w3.org/2000/svg"
   xmlns:sodipodi="http://sodipodi.sourceforge.net/DTD/sodipodi-0.dtd"
   xmlns:inkscape="http://www.inkscape.org/namespaces/inkscape"
   width="24"
   height="24"
   viewBox="0 0 24 24"
   fill="none"
   version="1.1"
   id="svg4"
   sodipodi:docname="health.svg"
   inkscape:version="1.0.1 (3bc2e813f5, 2020-09-07)">
  <metadata
     id="metadata10">
    <rdf:RDF>
      <cc:Work
         rdf:about="">
        <dc:format>image/svg+xml</dc:format>
        <dc:type
           rdf:resource="http://purl.org/dc/dcmitype/StillImage" />
        <dc:title></dc:title>
      </cc:Work>
    </rdf:RDF>
  </metadata>
  <defs
     id="defs8" />
  <sodipodi:namedview
     pagecolor="#ffffff"
     bordercolor="#666666"
     borderopacity="1"
     objecttolerance="10"
     gridtolerance="10"
     guidetolerance="10"
     inkscape:pageopacity="0"
     inkscape:pageshadow="2"
     inkscape:window-width="1920"
     inkscape:window-height="1017"
     id="namedview6"
     showgrid="false"
     inkscape:pagecheckerboard="true"
     inkscape:zoom="10.708333"
     inkscape:cx="24"
     inkscape:cy="24"
     inkscape:window-x="-8"
     inkscape:window-y="-8"
     inkscape:window-maximized="1"
     inkscape:current-layer="svg4" />
  <g
     id="g835"
     style="opacity:1">
    <path
       style="color:#000000;font-style:normal;font-variant:normal;font-weight:normal;font-stretch:normal;font-size:medium;line-height:normal;font-family:sans-serif;font-variant-ligatures:normal;font-variant-position:normal;font-variant-caps:normal;font-variant-numeric:normal;font-variant-alternates:normal;font-variant-east-asian:normal;font-feature-settings:normal;font-variation-settings:normal;text-indent:0;text-align:start;text-decoration:none;text-decoration-line:none;text-decoration-style:solid;text-decoration-color:#000000;letter-spacing:normal;word-spacing:normal;text-transform:none;writing-mode:lr-tb;direction:ltr;text-orientation:mixed;dominant-baseline:auto;baseline-shift:baseline;text-anchor:start;white-space:normal;shape-padding:0;shape-margin:0;inline-size:0;clip-rule:nonzero;display:inline;overflow:visible;visibility:visible;isolation:auto;mix-blend-mode:normal;color-interpolation:sRGB;color-interpolation-filters:linearRGB;solid-color:#000000;solid-opacity:1;vector-effect:none;fill:#0d1014;fill-opacity:1;fill-rule:nonzero;stroke-width:1;stroke-linecap:butt;stroke-linejoin:miter;stroke-miterlimit:4;stroke-dasharray:none;stroke-dashoffset:0;stroke-opacity:1.0;color-rendering:auto;image-rendering:auto;shape-rendering:auto;text-rendering:auto;enable-background:accumulate;stop-color:#000000;stop-opacity:1;stroke:none;"
       d="M 8.610145,2.5084742 V 2 H 8.10167 v 0.5084742 z m 6.77969,0 h 0.508474 V 2 H 15.389835 Z M 8.610145,8.607501 V 9.115975 H 9.118619 V 8.607501 Z m -6.1016708,0 V 8.099026 H 2 v 0.508475 z m 0,6.77969 H 2 v 0.508474 h 0.5084742 z m 6.1016708,0 H 9.118619 V 14.878717 H 8.610145 Z m 0,6.104335 H 8.10167 V 22 h 0.508475 z m 6.77969,0 V 22 h 0.508474 v -0.508474 z m 0,-6.104335 v -0.508474 h -0.508474 v 0.508474 z m 6.101691,0 v 0.508474 H 22 v -0.508474 z m 0,-6.77969 H 22 V 8.099026 h -0.508474 z m -6.101691,0 h -0.508474 v 0.508474 h 0.508474 z M 8.610145,3.0169484 h 6.77969 V 2 H 8.610145 Z M 9.118619,8.607501 V 2.5084742 H 8.10167 V 8.607501 Z M 2.5084742,9.115975 H 8.610145 V 8.099026 H 2.5084742 Z m 0.5084742,6.271216 V 8.607501 H 2 v 6.77969 z M 8.610145,14.878717 H 2.5084742 v 1.016948 H 8.610145 Z m 0.508474,6.612809 V 15.387191 H 8.10167 v 6.104335 z m 6.271216,-0.508475 H 8.610145 V 22 h 6.77969 z m -0.508474,-5.59586 v 6.104335 h 1.016948 v -6.104335 z m 6.610165,-0.508474 h -6.101691 v 1.016948 h 6.101691 z M 20.983051,8.607501 v 6.77969 H 22 v -6.77969 z m -5.593216,0.508474 h 6.101691 V 8.099026 H 15.389835 Z M 14.881361,2.5084742 V 8.607501 h 1.016948 V 2.5084742 Z"
       id="path837" />
    <path
       style="color:#000000;font-style:normal;font-variant:normal;font-weight:normal;font-stretch:normal;font-size:medium;line-height:normal;font-family:sans-serif;font-variant-ligatures:normal;font-variant-position:normal;font-variant-caps:normal;font-variant-numeric:normal;font-variant-alternates:normal;font-variant-east-asian:normal;font-feature-settings:normal;font-variation-settings:normal;text-indent:0;text-align:start;text-decoration:none;text-decoration-line:none;text-decoration-style:solid;text-decoration-color:#000000;letter-spacing:normal;word-spacing:normal;text-transform:none;writing-mode:lr-tb;direction:ltr;text-orientation:mixed;dominant-baseline:auto;baseline-shift:baseline;text-anchor:start;white-space:normal;shape-padding:0;shape-margin:0;inline-size:0;clip-rule:nonzero;display:inline;overflow:visible;visibility:visible;isolation:auto;mix-blend-mode:normal;color-interpolation:sRGB;color-interpolation-filters:linearRGB;solid-color:#000000;solid-opacity:1;vector-effect:none;fill-opacity:1;fill-rule:nonzero;stroke-width:1;stroke-linecap:butt;stroke-linejoin:miter;stroke-miterlimit:4;stroke-dasharray:none;stroke-dashoffset:0;stroke-opacity:1.0;color-rendering:auto;image-rendering:auto;shape-rendering:auto;text-rendering:auto;enable-background:accumulate;stop-color:#000000;stop-opacity:1;stroke:none;"
       d="M 7.6015625 1.5 L 7.6015625 2.0078125 L 7.6015625 3.0078125 L 7.6015625 7.5996094 L 3.0078125 7.5996094 L 2.0078125 7.5996094 L 1.5 7.5996094 L 1.5 8.1074219 L 1.5 9.1074219 L 1.5 14.886719 L 1.5 15.886719 L 1.5 16.396484 L 2.0078125 16.396484 L 3.0078125 16.396484 L 7.6015625 16.396484 L 7.6015625 20.992188 L 7.6015625 21.992188 L 7.6015625 22.5 L 8.109375 22.5 L 9.109375 22.5 L 14.890625 22.5 L 15.890625 22.5 L 16.398438 22.5 L 16.398438 21.992188 L 16.398438 20.992188 L 16.398438 16.396484 L 20.992188 16.396484 L 21.992188 16.396484 L 22.5 16.396484 L 22.5 15.886719 L 22.5 14.886719 L 22.5 9.1074219 L 22.5 8.1074219 L 22.5 7.5996094 L 21.992188 7.5996094 L 20.992188 7.5996094 L 16.398438 7.5996094 L 16.398438 3.0078125 L 16.398438 2.0078125 L 16.398438 1.5 L 15.890625 1.5 L 14.890625 1.5 L 9.109375 1.5 L 8.109375 1.5 L 7.6015625 1.5 z M 9.6191406 2.5 L 14.380859 2.5 L 14.380859 2.5078125 L 14.380859 2.5175781 L 9.6191406 2.5175781 L 9.6191406 2.5 z M 8.6015625 3.5175781 L 8.609375 3.5175781 L 8.6191406 3.5175781 L 8.6191406 7.5996094 L 8.6015625 7.5996094 L 8.6015625 3.5175781 z M 9.6191406 3.5175781 L 14.380859 3.5175781 L 14.380859 8.1074219 L 14.380859 9.1074219 L 14.380859 9.6152344 L 14.890625 9.6152344 L 15.890625 9.6152344 L 20.482422 9.6152344 L 20.482422 14.378906 L 15.890625 14.378906 L 14.890625 14.378906 L 14.380859 14.378906 L 14.380859 14.886719 L 14.380859 15.386719 L 14.380859 15.886719 L 14.380859 20.482422 L 9.6191406 20.482422 L 9.6191406 15.886719 L 9.6191406 14.886719 L 9.6191406 14.378906 L 9.109375 14.378906 L 8.609375 14.378906 L 8.109375 14.378906 L 3.5175781 14.378906 L 3.5175781 9.6152344 L 8.109375 9.6152344 L 9.109375 9.6152344 L 9.6191406 9.6152344 L 9.6191406 9.1074219 L 9.6191406 8.1074219 L 9.6191406 3.5175781 z M 15.380859 3.5175781 L 15.398438 3.5175781 L 15.398438 7.5996094 L 15.380859 7.5996094 L 15.380859 3.5175781 z M 3.5175781 8.5996094 L 7.6015625 8.5996094 L 7.6015625 8.6152344 L 3.5175781 8.6152344 L 3.5175781 8.5996094 z M 16.398438 8.5996094 L 20.482422 8.5996094 L 20.482422 8.6074219 L 20.482422 8.6152344 L 16.398438 8.6152344 L 16.398438 8.5996094 z M 2.5 9.6152344 L 2.5078125 9.6152344 L 2.5175781 9.6152344 L 2.5175781 14.378906 L 2.5 14.378906 L 2.5 9.6152344 z M 21.482422 9.6152344 L 21.5 9.6152344 L 21.5 14.378906 L 21.492188 14.378906 L 21.482422 14.378906 L 21.482422 9.6152344 z M 3.5175781 15.378906 L 7.6015625 15.378906 L 7.6015625 15.396484 L 3.5175781 15.396484 L 3.5175781 15.386719 L 3.5175781 15.378906 z M 16.398438 15.378906 L 20.482422 15.378906 L 20.482422 15.396484 L 16.398438 15.396484 L 16.398438 15.378906 z M 8.6015625 16.396484 L 8.6191406 16.396484 L 8.6191406 20.482422 L 8.6015625 20.482422 L 8.6015625 16.396484 z M 15.380859 16.396484 L 15.398438 16.396484 L 15.398438 20.482422 L 15.390625 20.482422 L 15.380859 20.482422 L 15.380859 16.396484 z M 9.6191406 21.482422 L 14.380859 21.482422 L 14.380859 21.5 L 9.6191406 21.5 L 9.6191406 21.492188 L 9.6191406 21.482422 z "
       id="path839" />
  </g>
</svg>
