<?xml version="1.0" encoding="UTF-8" standalone="no"?>
<svg
   xmlns:dc="http://purl.org/dc/elements/1.1/"
   xmlns:cc="http://creativecommons.org/ns#"
   xmlns:rdf="http://www.w3.org/1999/02/22-rdf-syntax-ns#"
   xmlns:svg="http://www.w3.org/2000/svg"
   xmlns="http://www.w3.org/2000/svg"
   xmlns:sodipodi="http://sodipodi.sourceforge.net/DTD/sodipodi-0.dtd"
   xmlns:inkscape="http://www.inkscape.org/namespaces/inkscape"
   width="24"
   height="24"
   viewBox="0 0 24 24"
   fill="none"
   version="1.1"
   id="svg22"
   sodipodi:docname="institution.svg"
   inkscape:version="1.0.1 (3bc2e813f5, 2020-09-07)">
  <metadata
     id="metadata28">
    <rdf:RDF>
      <cc:Work
         rdf:about="">
        <dc:format>image/svg+xml</dc:format>
        <dc:type
           rdf:resource="http://purl.org/dc/dcmitype/StillImage" />
        <dc:title></dc:title>
      </cc:Work>
    </rdf:RDF>
  </metadata>
  <defs
     id="defs26" />
  <sodipodi:namedview
     pagecolor="#ffffff"
     bordercolor="#666666"
     borderopacity="1"
     objecttolerance="10"
     gridtolerance="10"
     guidetolerance="10"
     inkscape:pageopacity="0"
     inkscape:pageshadow="2"
     inkscape:window-width="1920"
     inkscape:window-height="1017"
     id="namedview24"
     showgrid="false"
     inkscape:pagecheckerboard="true"
     inkscape:zoom="10.708333"
     inkscape:cx="24"
     inkscape:cy="24.04249"
     inkscape:window-x="-8"
     inkscape:window-y="-8"
     inkscape:window-maximized="1"
     inkscape:current-layer="svg22" />
  <path
     id="path877"
     style="color:#000000;font-style:normal;font-variant:normal;font-weight:normal;font-stretch:normal;font-size:medium;line-height:normal;font-family:sans-serif;font-variant-ligatures:normal;font-variant-position:normal;font-variant-caps:normal;font-variant-numeric:normal;font-variant-alternates:normal;font-variant-east-asian:normal;font-feature-settings:normal;font-variation-settings:normal;text-indent:0;text-align:start;text-decoration:none;text-decoration-line:none;text-decoration-style:solid;text-decoration-color:#000000;letter-spacing:normal;word-spacing:normal;text-transform:none;writing-mode:lr-tb;direction:ltr;text-orientation:mixed;dominant-baseline:auto;baseline-shift:baseline;text-anchor:start;white-space:normal;shape-padding:0;shape-margin:0;inline-size:0;clip-rule:nonzero;display:inline;overflow:visible;visibility:visible;isolation:auto;mix-blend-mode:normal;color-interpolation:sRGB;color-interpolation-filters:linearRGB;solid-color:#000000;solid-opacity:1;vector-effect:none;fill:#0d1014;fill-opacity:1;fill-rule:nonzero;stroke:none;stroke-width:1;stroke-linecap:butt;stroke-linejoin:miter;stroke-miterlimit:10;stroke-dasharray:none;stroke-dashoffset:0;stroke-opacity:1;color-rendering:auto;image-rendering:auto;shape-rendering:auto;text-rendering:auto;enable-background:accumulate;stop-color:#000000;stop-opacity:1;opacity:1"
     d="M 12.001953 2.3359375 L 11.814453 2.4121094 L 2.1699219 6.3222656 L 2.1699219 10.3125 L 4.0019531 10.3125 L 4.0019531 18.144531 L 2.6699219 18.144531 L 2.6699219 19.144531 L 21.335938 19.144531 L 21.335938 18.144531 L 20.001953 18.144531 L 20.001953 10.3125 L 21.835938 10.3125 L 21.835938 6.3222656 L 12.001953 2.3359375 z M 12.003906 3.4160156 L 18.773438 6.1601562 L 5.2324219 6.1601562 L 12.003906 3.4160156 z M 3.1699219 7.1601562 L 20.835938 7.1601562 L 20.835938 9.3125 L 3.1699219 9.3125 L 3.1699219 7.1601562 z M 5.0019531 10.3125 L 7.0019531 10.3125 L 7.0019531 18.144531 L 5.0019531 18.144531 L 5.0019531 10.3125 z M 8.0019531 10.3125 L 10.001953 10.3125 L 10.001953 18.144531 L 8.0019531 18.144531 L 8.0019531 10.3125 z M 11.001953 10.3125 L 13.001953 10.3125 L 13.001953 18.144531 L 11.001953 18.144531 L 11.001953 10.3125 z M 14.001953 10.3125 L 16.001953 10.3125 L 16.001953 18.144531 L 14.001953 18.144531 L 14.001953 10.3125 z M 17.001953 10.3125 L 19.001953 10.3125 L 19.001953 18.144531 L 17.001953 18.144531 L 17.001953 10.3125 z M 1.3339844 20.664062 L 1.3339844 21.664062 L 22.666016 21.664062 L 22.666016 20.664062 L 1.3339844 20.664062 z " />
</svg>
