<?xml version="1.0" encoding="UTF-8" standalone="no"?>
<svg
   xmlns:dc="http://purl.org/dc/elements/1.1/"
   xmlns:cc="http://creativecommons.org/ns#"
   xmlns:rdf="http://www.w3.org/1999/02/22-rdf-syntax-ns#"
   xmlns:svg="http://www.w3.org/2000/svg"
   xmlns="http://www.w3.org/2000/svg"
   xmlns:sodipodi="http://sodipodi.sourceforge.net/DTD/sodipodi-0.dtd"
   xmlns:inkscape="http://www.inkscape.org/namespaces/inkscape"
   width="24"
   height="24"
   viewBox="0 0 24 24"
   fill="none"
   version="1.1"
   id="svg14"
   sodipodi:docname="people.svg"
   inkscape:version="1.0.1 (3bc2e813f5, 2020-09-07)">
  <metadata
     id="metadata20">
    <rdf:RDF>
      <cc:Work
         rdf:about="">
        <dc:format>image/svg+xml</dc:format>
        <dc:type
           rdf:resource="http://purl.org/dc/dcmitype/StillImage" />
        <dc:title></dc:title>
      </cc:Work>
    </rdf:RDF>
  </metadata>
  <defs
     id="defs18" />
  <sodipodi:namedview
     pagecolor="#ffffff"
     bordercolor="#666666"
     borderopacity="1"
     objecttolerance="10"
     gridtolerance="10"
     guidetolerance="10"
     inkscape:pageopacity="0"
     inkscape:pageshadow="2"
     inkscape:window-width="1920"
     inkscape:window-height="1017"
     id="namedview16"
     showgrid="false"
     inkscape:pagecheckerboard="true"
     inkscape:zoom="10.708333"
     inkscape:cx="24"
     inkscape:cy="24"
     inkscape:window-x="-8"
     inkscape:window-y="-8"
     inkscape:window-maximized="1"
     inkscape:current-layer="svg14" />
  <path
     id="path883"
     style="color:#000000;font-style:normal;font-variant:normal;font-weight:normal;font-stretch:normal;font-size:medium;line-height:normal;font-family:sans-serif;font-variant-ligatures:normal;font-variant-position:normal;font-variant-caps:normal;font-variant-numeric:normal;font-variant-alternates:normal;font-variant-east-asian:normal;font-feature-settings:normal;font-variation-settings:normal;text-indent:0;text-align:start;text-decoration:none;text-decoration-line:none;text-decoration-style:solid;text-decoration-color:#000000;letter-spacing:normal;word-spacing:normal;text-transform:none;writing-mode:lr-tb;direction:ltr;text-orientation:mixed;dominant-baseline:auto;baseline-shift:baseline;text-anchor:start;white-space:normal;shape-padding:0;shape-margin:0;inline-size:0;clip-rule:nonzero;display:inline;overflow:visible;visibility:visible;isolation:auto;mix-blend-mode:normal;color-interpolation:sRGB;color-interpolation-filters:linearRGB;solid-color:#000000;solid-opacity:1;vector-effect:none;fill:#0d1014;fill-opacity:1;fill-rule:nonzero;stroke:none;stroke-width:1;stroke-linecap:butt;stroke-linejoin:miter;stroke-miterlimit:10;stroke-dasharray:none;stroke-dashoffset:0;stroke-opacity:1;color-rendering:auto;image-rendering:auto;shape-rendering:auto;text-rendering:auto;enable-background:accumulate;stop-color:#000000;stop-opacity:1;opacity:1"
     d="M 12 1.703125 C 10.418734 1.703125 9.3300781 3.0605598 9.3300781 4.6035156 L 9.3300781 5.4042969 C 9.3300781 6.289083 9.6972107 7.1027329 10.300781 7.6445312 C 10.049585 7.7396294 9.8061837 7.8451949 9.5839844 7.9648438 C 9.2362713 8.1520786 8.933917 8.3599572 8.6953125 8.59375 C 8.456708 8.8275428 8.2421875 9.0883823 8.2421875 9.4824219 L 8.2421875 11.162109 L 9.2421875 11.162109 L 9.2421875 9.4824219 C 9.2421875 9.5575126 9.2508705 9.4493574 9.3945312 9.3085938 C 9.5381921 9.16783 9.7750168 8.9964492 10.058594 8.84375 C 10.625747 8.5383516 11.385351 8.3046875 11.996094 8.3046875 C 11.997436 8.3046895 11.998657 8.3046875 12 8.3046875 C 12.613226 8.3056247 13.370397 8.5391052 13.935547 8.84375 C 14.218691 8.9963792 14.454424 9.1679394 14.597656 9.3085938 C 14.740889 9.449248 14.751953 9.5568076 14.751953 9.4824219 L 14.751953 11.162109 L 15.751953 11.162109 L 15.751953 9.4824219 C 15.751953 9.0890873 15.537018 8.8276521 15.298828 8.59375 C 15.060639 8.3598479 14.757628 8.1521488 14.410156 7.9648438 C 14.1893 7.8457909 13.947021 7.7412396 13.697266 7.6464844 C 14.301478 7.1049322 14.669922 6.2900666 14.669922 5.4042969 L 14.669922 4.6035156 C 14.669922 3.0605599 13.581266 1.703125 12 1.703125 z M 12 2.703125 C 13.0334 2.703125 13.669922 3.4941511 13.669922 4.6035156 L 13.669922 5.4042969 C 13.669922 6.5122935 13.026809 7.3046875 12 7.3046875 C 10.966601 7.3046875 10.330078 6.5136613 10.330078 5.4042969 L 10.330078 4.6035156 C 10.330078 3.4941512 10.9666 2.703125 12 2.703125 z M 7.65625 11.779297 C 6.0749936 11.779297 4.9863281 13.136719 4.9863281 14.679688 L 4.9863281 15.480469 C 4.9863281 16.365744 5.3528628 17.180872 5.9570312 17.722656 C 5.7087657 17.817064 5.467867 17.920695 5.2480469 18.039062 C 4.9003338 18.226298 4.5979796 18.436129 4.359375 18.669922 C 4.1207704 18.903715 3.90625 19.164554 3.90625 19.558594 L 3.90625 21.236328 C 3.90625 21.80848 4.3695435 22.296875 4.9492188 22.296875 L 10.373047 22.296875 C 10.952722 22.296875 11.416016 21.8085 11.416016 21.236328 L 11.416016 19.558594 C 11.416016 19.165259 11.20108 18.903824 10.962891 18.669922 C 10.724701 18.43602 10.42169 18.226368 10.074219 18.039062 C 9.8521739 17.919369 9.6086452 17.813849 9.3574219 17.71875 C 9.9591564 17.177152 10.326172 16.364237 10.326172 15.480469 L 10.326172 14.679688 C 10.326172 13.136718 9.2375061 11.779297 7.65625 11.779297 z M 16.339844 11.779297 C 14.758587 11.779297 13.669922 13.136719 13.669922 14.679688 L 13.669922 15.480469 C 13.669922 16.365261 14.037054 17.178907 14.640625 17.720703 C 14.390894 17.815457 14.148744 17.920054 13.927734 18.039062 C 13.580021 18.226298 13.275714 18.436129 13.037109 18.669922 C 12.798505 18.903715 12.583984 19.164554 12.583984 19.558594 L 12.583984 21.236328 C 12.583984 21.808501 13.04728 22.296875 13.626953 22.296875 L 19.050781 22.296875 C 19.630457 22.296875 20.09375 21.8085 20.09375 21.236328 L 20.09375 19.558594 C 20.09375 19.165259 19.880768 18.903824 19.642578 18.669922 C 19.404389 18.43602 19.101378 18.226368 18.753906 18.039062 C 18.532544 17.919737 18.289443 17.815605 18.039062 17.720703 C 18.642035 17.179128 19.009766 16.365241 19.009766 15.480469 L 19.009766 14.679688 C 19.009766 13.136718 17.9211 11.779297 16.339844 11.779297 z M 7.65625 12.779297 C 8.6896599 12.779297 9.3261719 13.570305 9.3261719 14.679688 L 9.3261719 15.480469 C 9.3261719 16.584032 8.687584 17.372576 7.6679688 17.378906 C 7.6653831 17.378901 7.6627416 17.378906 7.6601562 17.378906 C 7.6555787 17.378906 7.651063 17.380843 7.6464844 17.380859 C 6.6190619 17.375702 5.9863281 16.586217 5.9863281 15.480469 L 5.9863281 14.679688 C 5.9863281 13.570305 6.6228396 12.779297 7.65625 12.779297 z M 16.339844 12.779297 C 17.373254 12.779297 18.009766 13.570305 18.009766 14.679688 L 18.009766 15.480469 C 18.009766 16.584032 17.371176 17.372576 16.351562 17.378906 C 16.347684 17.378894 16.343722 17.378906 16.339844 17.378906 C 16.335964 17.378906 16.332005 17.378894 16.328125 17.378906 C 15.302015 17.37262 14.669922 16.585417 14.669922 15.480469 L 14.669922 14.679688 C 14.669922 13.570305 15.306433 12.779297 16.339844 12.779297 z M 7.6679688 18.378906 C 8.2805382 18.380791 9.0355977 18.61589 9.5996094 18.919922 C 9.8827533 19.072551 10.118486 19.244111 10.261719 19.384766 C 10.404951 19.52542 10.416016 19.632979 10.416016 19.558594 L 10.416016 21.236328 C 10.416016 21.279648 10.390087 21.296875 10.373047 21.296875 L 4.9492188 21.296875 C 4.9321874 21.296875 4.90625 21.279669 4.90625 21.236328 L 4.90625 19.558594 C 4.90625 19.633684 4.914933 19.525529 5.0585938 19.384766 C 5.2022544 19.244002 5.4390795 19.072621 5.7226562 18.919922 C 6.2863278 18.616398 7.0396405 18.383729 7.6484375 18.380859 C 7.6511211 18.380867 7.6535635 18.380859 7.65625 18.380859 C 7.6603401 18.380859 7.6638852 18.378924 7.6679688 18.378906 z M 16.330078 18.378906 C 16.333503 18.378919 16.336414 18.380859 16.339844 18.380859 C 16.343264 18.380859 16.346194 18.378919 16.349609 18.378906 C 16.961848 18.381259 17.715854 18.616197 18.279297 18.919922 C 18.562441 19.072551 18.798174 19.244111 18.941406 19.384766 C 19.084639 19.52542 19.09375 19.632979 19.09375 19.558594 L 19.09375 21.236328 C 19.09375 21.279648 19.067822 21.296875 19.050781 21.296875 L 13.626953 21.296875 C 13.610004 21.296875 13.583984 21.279647 13.583984 21.236328 L 13.583984 19.558594 C 13.583984 19.633684 13.59462 19.525529 13.738281 19.384766 C 13.881942 19.244002 14.118767 19.072621 14.402344 18.919922 C 14.966636 18.616063 15.72093 18.381267 16.330078 18.378906 z " />
</svg>
