<?xml version="1.0" encoding="UTF-8" standalone="no"?>
<svg
   xmlns:dc="http://purl.org/dc/elements/1.1/"
   xmlns:cc="http://creativecommons.org/ns#"
   xmlns:rdf="http://www.w3.org/1999/02/22-rdf-syntax-ns#"
   xmlns:svg="http://www.w3.org/2000/svg"
   xmlns="http://www.w3.org/2000/svg"
   xmlns:sodipodi="http://sodipodi.sourceforge.net/DTD/sodipodi-0.dtd"
   xmlns:inkscape="http://www.inkscape.org/namespaces/inkscape"
   width="24"
   height="24"
   viewBox="0 0 24 24"
   fill="none"
   version="1.1"
   id="svg10"
   sodipodi:docname="privacy.svg"
   inkscape:version="1.0.1 (3bc2e813f5, 2020-09-07)">
  <metadata
     id="metadata16">
    <rdf:RDF>
      <cc:Work
         rdf:about="">
        <dc:format>image/svg+xml</dc:format>
        <dc:type
           rdf:resource="http://purl.org/dc/dcmitype/StillImage" />
        <dc:title></dc:title>
      </cc:Work>
    </rdf:RDF>
  </metadata>
  <defs
     id="defs14" />
  <sodipodi:namedview
     pagecolor="#ffffff"
     bordercolor="#666666"
     borderopacity="1"
     objecttolerance="10"
     gridtolerance="10"
     guidetolerance="10"
     inkscape:pageopacity="0"
     inkscape:pageshadow="2"
     inkscape:window-width="1920"
     inkscape:window-height="1017"
     id="namedview12"
     showgrid="false"
     inkscape:pagecheckerboard="true"
     inkscape:zoom="10.708333"
     inkscape:cx="24"
     inkscape:cy="24"
     inkscape:window-x="-8"
     inkscape:window-y="-8"
     inkscape:window-maximized="1"
     inkscape:current-layer="svg10" />
  <path
     id="path893"
     style="color:#000000;font-style:normal;font-variant:normal;font-weight:normal;font-stretch:normal;font-size:medium;line-height:normal;font-family:sans-serif;font-variant-ligatures:normal;font-variant-position:normal;font-variant-caps:normal;font-variant-numeric:normal;font-variant-alternates:normal;font-variant-east-asian:normal;font-feature-settings:normal;font-variation-settings:normal;text-indent:0;text-align:start;text-decoration:none;text-decoration-line:none;text-decoration-style:solid;text-decoration-color:#000000;letter-spacing:normal;word-spacing:normal;text-transform:none;writing-mode:lr-tb;direction:ltr;text-orientation:mixed;dominant-baseline:auto;baseline-shift:baseline;text-anchor:start;white-space:normal;shape-padding:0;shape-margin:0;inline-size:0;clip-rule:nonzero;display:inline;overflow:visible;visibility:visible;isolation:auto;mix-blend-mode:normal;color-interpolation:sRGB;color-interpolation-filters:linearRGB;solid-color:#000000;solid-opacity:1;vector-effect:none;fill:#0d1014;fill-opacity:1;fill-rule:nonzero;stroke:none;stroke-width:1;stroke-linecap:butt;stroke-linejoin:miter;stroke-miterlimit:10;stroke-dasharray:none;stroke-dashoffset:0;stroke-opacity:1;color-rendering:auto;image-rendering:auto;shape-rendering:auto;text-rendering:auto;enable-background:accumulate;stop-color:#000000;stop-opacity:1;opacity:1"
     d="M 12 2.7480469 C 9.6968568 2.7480469 7.8339844 4.6748858 7.8339844 7.0214844 L 7.8339844 9.3515625 L 6 9.3515625 L 6 9.8515625 L 6 18.490234 L 12 21.251953 L 18 18.490234 L 18 9.3515625 L 16.166016 9.3515625 L 16.166016 7.0214844 C 16.166016 4.6748858 14.303143 2.7480469 12 2.7480469 z M 12 3.7480469 C 13.746965 3.7480469 15.166016 5.2000269 15.166016 7.0214844 L 15.166016 9.3515625 L 8.8339844 9.3515625 L 8.8339844 7.0214844 C 8.8339844 5.2000269 10.253035 3.7480469 12 3.7480469 z M 7 10.351562 L 17 10.351562 L 17 17.849609 L 12 20.150391 L 7 17.849609 L 7 10.351562 z M 12 12.181641 C 11.215648 12.18164 10.583985 12.841421 10.583984 13.625 C 10.583985 14.232056 10.964474 14.761477 11.5 14.970703 L 11.5 17.398438 L 12.5 17.398438 L 12.5 14.970703 C 13.035526 14.761477 13.416015 14.232056 13.416016 13.625 C 13.416015 12.841421 12.784352 12.18164 12 12.181641 z M 12 13.181641 C 12.22817 13.181641 12.416016 13.366565 12.416016 13.625 C 12.416016 13.883435 12.22817 14.068359 12 14.068359 C 11.77183 14.068359 11.583984 13.883435 11.583984 13.625 C 11.583984 13.366565 11.77183 13.181641 12 13.181641 z " />
</svg>
