<?xml version="1.0" encoding="UTF-8" standalone="no"?>
<svg
   xmlns:dc="http://purl.org/dc/elements/1.1/"
   xmlns:cc="http://creativecommons.org/ns#"
   xmlns:rdf="http://www.w3.org/1999/02/22-rdf-syntax-ns#"
   xmlns:svg="http://www.w3.org/2000/svg"
   xmlns="http://www.w3.org/2000/svg"
   xmlns:sodipodi="http://sodipodi.sourceforge.net/DTD/sodipodi-0.dtd"
   xmlns:inkscape="http://www.inkscape.org/namespaces/inkscape"
   width="24"
   height="24"
   viewBox="0 0 24 24"
   fill="none"
   version="1.1"
   id="svg8"
   sodipodi:docname="product.svg"
   inkscape:version="1.0.1 (3bc2e813f5, 2020-09-07)">
  <metadata
     id="metadata14">
    <rdf:RDF>
      <cc:Work
         rdf:about="">
        <dc:format>image/svg+xml</dc:format>
        <dc:type
           rdf:resource="http://purl.org/dc/dcmitype/StillImage" />
        <dc:title></dc:title>
      </cc:Work>
    </rdf:RDF>
  </metadata>
  <defs
     id="defs12" />
  <sodipodi:namedview
     pagecolor="#ffffff"
     bordercolor="#666666"
     borderopacity="1"
     objecttolerance="10"
     gridtolerance="10"
     guidetolerance="10"
     inkscape:pageopacity="0"
     inkscape:pageshadow="2"
     inkscape:window-width="1920"
     inkscape:window-height="1017"
     id="namedview10"
     showgrid="false"
     inkscape:pagecheckerboard="true"
     inkscape:zoom="10.708333"
     inkscape:cx="24"
     inkscape:cy="24"
     inkscape:window-x="-8"
     inkscape:window-y="-8"
     inkscape:window-maximized="1"
     inkscape:current-layer="svg8"
     inkscape:document-rotation="0" />
  <path
     id="path838"
     style="color:#000000;font-style:normal;font-variant:normal;font-weight:normal;font-stretch:normal;font-size:medium;line-height:normal;font-family:sans-serif;font-variant-ligatures:normal;font-variant-position:normal;font-variant-caps:normal;font-variant-numeric:normal;font-variant-alternates:normal;font-variant-east-asian:normal;font-feature-settings:normal;font-variation-settings:normal;text-indent:0;text-align:start;text-decoration:none;text-decoration-line:none;text-decoration-style:solid;text-decoration-color:#000000;letter-spacing:normal;word-spacing:normal;text-transform:none;writing-mode:lr-tb;direction:ltr;text-orientation:mixed;dominant-baseline:auto;baseline-shift:baseline;text-anchor:start;white-space:normal;shape-padding:0;shape-margin:0;inline-size:0;clip-rule:nonzero;display:inline;overflow:visible;visibility:visible;isolation:auto;mix-blend-mode:normal;color-interpolation:sRGB;color-interpolation-filters:linearRGB;solid-color:#000000;solid-opacity:1;vector-effect:none;fill:#0d1014;fill-opacity:1;fill-rule:nonzero;stroke:none;stroke-width:1;stroke-linecap:round;stroke-linejoin:round;stroke-miterlimit:4;stroke-dasharray:none;stroke-dashoffset:0;stroke-opacity:1;color-rendering:auto;image-rendering:auto;shape-rendering:auto;text-rendering:auto;enable-background:accumulate;stop-color:#000000;stop-opacity:1;opacity:1"
     d="M 12.019531 3 A 0.50005 0.50005 0 0 0 11.753906 3.0644531 L 4.2539062 7.3144531 A 0.5 0.5 0 0 0 4.25 7.3183594 A 0.50005 0.50005 0 0 0 4.2109375 7.34375 A 0.5 0.5 0 0 0 4.1992188 7.3515625 A 0.50005 0.50005 0 0 0 4.1738281 7.3730469 A 0.5 0.5 0 0 0 4.1484375 7.3945312 A 0.50005 0.50005 0 0 0 4.1386719 7.40625 A 0.5 0.5 0 0 0 4.1054688 7.4433594 A 0.5 0.5 0 0 0 4.078125 7.4804688 A 0.50005 0.50005 0 0 0 4.0527344 7.5273438 A 0.50005 0.50005 0 0 0 4.0332031 7.5722656 A 0.5 0.5 0 0 0 4.0292969 7.5820312 A 0.50005 0.50005 0 0 0 4.0234375 7.6015625 A 0.5 0.5 0 0 0 4.0097656 7.6523438 A 0.50005 0.50005 0 0 0 4.0078125 7.6679688 A 0.5 0.5 0 0 0 4.0019531 7.7167969 A 0.5 0.5 0 0 0 4 7.7558594 L 4 16.25 A 0.50005 0.50005 0 0 0 4.2539062 16.685547 L 11.753906 20.935547 A 0.50005 0.50005 0 0 0 11.777344 20.947266 A 0.5 0.5 0 0 0 11.785156 20.951172 A 0.50005 0.50005 0 0 0 11.820312 20.964844 A 0.5 0.5 0 0 0 11.863281 20.980469 A 0.5 0.5 0 0 0 11.917969 20.992188 A 0.50005 0.50005 0 0 0 11.921875 20.994141 A 0.5 0.5 0 0 0 12.005859 21 A 0.50005 0.50005 0 0 0 12.033203 20.998047 A 0.5 0.5 0 0 0 12.039062 20.998047 A 0.50005 0.50005 0 0 0 12.042969 20.998047 A 0.5 0.5 0 0 0 12.099609 20.990234 A 0.50005 0.50005 0 0 0 12.125 20.984375 A 0.5 0.5 0 0 0 12.210938 20.953125 A 0.50005 0.50005 0 0 0 12.234375 20.941406 A 0.5 0.5 0 0 0 12.246094 20.935547 A 0.50005 0.50005 0 0 0 12.259766 20.927734 L 12.263672 20.925781 A 0.50005 0.50005 0 0 0 12.265625 20.925781 L 19.746094 16.685547 A 0.50005 0.50005 0 0 0 20 16.25 L 20 7.75 A 0.50005 0.50005 0 0 0 20 7.7480469 A 0.5 0.5 0 0 0 20 7.7441406 A 0.50005 0.50005 0 0 0 19.996094 7.6914062 A 0.50005 0.50005 0 0 0 19.988281 7.6445312 A 0.50005 0.50005 0 0 0 19.986328 7.6328125 A 0.5 0.5 0 0 0 19.984375 7.625 A 0.50005 0.50005 0 0 0 19.96875 7.5761719 A 0.5 0.5 0 0 0 19.966797 7.5683594 A 0.50005 0.50005 0 0 0 19.945312 7.5214844 A 0.5 0.5 0 0 0 19.941406 7.515625 A 0.50005 0.50005 0 0 0 19.914062 7.4707031 A 0.5 0.5 0 0 0 19.910156 7.4648438 A 0.50005 0.50005 0 0 0 19.878906 7.421875 A 0.5 0.5 0 0 0 19.875 7.4179688 A 0.50005 0.50005 0 0 0 19.835938 7.3808594 A 0.50005 0.50005 0 0 0 19.796875 7.3496094 A 0.50005 0.50005 0 0 0 19.791016 7.34375 A 0.5 0.5 0 0 0 19.785156 7.3398438 A 0.50005 0.50005 0 0 0 19.746094 7.3144531 L 19.740234 7.3105469 A 0.5 0.5 0 0 0 19.734375 7.3085938 L 12.246094 3.0644531 A 0.50005 0.50005 0 0 0 12.019531 3 z M 12 4.0742188 L 18.486328 7.75 L 12 11.425781 L 5.5136719 7.75 L 12 4.0742188 z M 5 8.6074219 L 11.5 12.291016 L 11.5 19.642578 L 5 15.958984 L 5 8.6074219 z M 19 8.6074219 L 19 15.958984 L 12.5 19.642578 L 12.5 12.291016 L 19 8.6074219 z " />
</svg>
